<svg xmlns="http://www.w3.org/2000/svg" version="1.1" xmlns:xlink="http://www.w3.org/1999/xlink" xmlns:svgjs="http://svgjs.dev/svgjs" width="1500" height="1500" viewBox="0 0 1500 1500"><rect width="1500" height="1500" fill="#ffffff"></rect><g transform="matrix(0.6666666666666666,0,0,0.6666666666666666,249.39393939393932,656.9456568500606)"><svg viewBox="0 0 396 74" data-background-color="#22223b" preserveAspectRatio="xMidYMid meet" height="280" width="1500" xmlns="http://www.w3.org/2000/svg" xmlns:xlink="http://www.w3.org/1999/xlink"><g id="tight-bounds" transform="matrix(1,0,0,1,0.24000000000003752,-0.11059967984547825)"><svg viewBox="0 0 395.5199999999999 74.22119935969097" height="74.22119935969097" width="395.5199999999999"><g><svg viewBox="0 0 405.24424530298006 76.04599999999999" height="74.22119935969097" width="395.5199999999999"><g><svg viewBox="0 0 405.24424530298006 76.04599999999999" height="76.04599999999999" width="405.24424530298006"><g id="textblocktransform"><svg viewBox="0 0 405.24424530298006 76.04599999999999" height="76.04599999999999" width="405.24424530298006" id="textblock"><g><svg viewBox="0 0 405.24424530298006 76.04599999999999" height="76.04599999999999" width="405.24424530298006"><g><svg><g></g><g></g></svg></g><g><svg><g><svg></svg></g><g></g></svg></g><g id="text-0"><svg viewBox="0 0 405.24424530298006 76.04599999999999" height="76.04599999999999" width="405.24424530298006"><g transform="matrix(1,0,0,1,0,0)"><svg width="311.2223" viewBox="1.2 -36 192.33 47" height="76.04599999999999" data-palette-color="#f2e9e4"><path d="M12.75 0L8.45 0 1.2-24.8 5.4-24.8 10.65-5.35 16.45-24.8 21.2-24.8 27.05-5.35 32.25-24.8 36.5-24.8 29.25 0 24.95 0 18.85-20.45 12.75 0ZM43.7-30.3L43.7-30.3Q42.45-30.3 41.62-31.13 40.8-31.95 40.8-33.2L40.8-33.2Q40.8-34.4 41.62-35.2 42.45-36 43.7-36L43.7-36Q44.9-36 45.75-35.2 46.6-34.4 46.6-33.2L46.6-33.2Q46.6-31.95 45.75-31.13 44.9-30.3 43.7-30.3ZM45.8 0L41.6 0 41.6-24.8 45.8-24.8 45.8 0ZM57.3 0L53.1 0 53.1-24.8 56.9-24.8 57.25-20.05Q58.4-22.5 60.75-23.95 63.1-25.4 66.55-25.4L66.55-25.4 66.55-21 65.4-21Q63.2-21 61.35-20.23 59.5-19.45 58.4-17.6 57.3-15.75 57.3-12.5L57.3-12.5 57.3 0ZM81.44 0.6L81.44 0.6Q77.89 0.6 75.14-1.03 72.39-2.65 70.82-5.55 69.24-8.45 69.24-12.4L69.24-12.4Q69.24-16.3 70.79-19.23 72.34-22.15 75.12-23.78 77.89-25.4 81.54-25.4L81.54-25.4Q85.14-25.4 87.77-23.78 90.39-22.15 91.79-19.5 93.19-16.85 93.19-13.8L93.19-13.8Q93.19-13.25 93.17-12.7 93.14-12.15 93.14-11.45L93.14-11.45 73.39-11.45Q73.54-8.6 74.72-6.73 75.89-4.85 77.67-3.9 79.44-2.95 81.44-2.95L81.44-2.95Q84.04-2.95 85.79-4.15 87.54-5.35 88.34-7.4L88.34-7.4 92.49-7.4Q91.49-3.95 88.67-1.68 85.84 0.6 81.44 0.6ZM81.44-21.85L81.44-21.85Q78.44-21.85 76.12-20.03 73.79-18.2 73.44-14.7L73.44-14.7 89.04-14.7Q88.89-18.05 86.74-19.95 84.59-21.85 81.44-21.85ZM102.94 11L98.74 11 98.74-24.8 102.54-24.8 102.94-20.7Q104.14-22.5 106.37-23.95 108.59-25.4 112.04-25.4L112.04-25.4Q115.74-25.4 118.49-23.7 121.24-22 122.77-19.05 124.29-16.1 124.29-12.35L124.29-12.35Q124.29-8.6 122.77-5.68 121.24-2.75 118.47-1.07 115.69 0.6 111.99 0.6L111.99 0.6Q108.94 0.6 106.57-0.65 104.19-1.9 102.94-4.15L102.94-4.15 102.94 11ZM111.54-3.05L111.54-3.05Q114.04-3.05 115.94-4.23 117.84-5.4 118.94-7.5 120.04-9.6 120.04-12.4L120.04-12.4Q120.04-15.2 118.94-17.3 117.84-19.4 115.94-20.58 114.04-21.75 111.54-21.75L111.54-21.75Q109.04-21.75 107.14-20.58 105.24-19.4 104.14-17.3 103.04-15.2 103.04-12.4L103.04-12.4Q103.04-9.6 104.14-7.5 105.24-5.4 107.14-4.23 109.04-3.05 111.54-3.05ZM141.44 0.6L141.44 0.6Q137.94 0.6 135.14-1 132.34-2.6 130.71-5.53 129.09-8.45 129.09-12.4L129.09-12.4Q129.09-16.35 130.74-19.28 132.39-22.2 135.21-23.8 138.04-25.4 141.54-25.4L141.54-25.4Q145.04-25.4 147.84-23.8 150.64-22.2 152.26-19.28 153.89-16.35 153.89-12.4L153.89-12.4Q153.89-8.45 152.24-5.53 150.59-2.6 147.76-1 144.94 0.6 141.44 0.6ZM141.44-3L141.44-3Q143.59-3 145.44-4.05 147.29-5.1 148.44-7.2 149.59-9.3 149.59-12.4L149.59-12.4Q149.59-15.5 148.46-17.6 147.34-19.7 145.49-20.75 143.64-21.8 141.54-21.8L141.54-21.8Q139.39-21.8 137.54-20.75 135.69-19.7 134.54-17.6 133.39-15.5 133.39-12.4L133.39-12.4Q133.39-9.3 134.54-7.2 135.69-5.1 137.51-4.05 139.34-3 141.44-3ZM171.04 0.6L171.04 0.6Q167.54 0.6 164.74-1 161.94-2.6 160.31-5.53 158.69-8.45 158.69-12.4L158.69-12.4Q158.69-16.35 160.34-19.28 161.99-22.2 164.81-23.8 167.64-25.4 171.14-25.4L171.14-25.4Q174.64-25.4 177.44-23.8 180.24-22.2 181.86-19.28 183.49-16.35 183.49-12.4L183.49-12.4Q183.49-8.45 181.84-5.53 180.19-2.6 177.36-1 174.54 0.6 171.04 0.6ZM171.04-3L171.04-3Q173.19-3 175.04-4.05 176.89-5.1 178.04-7.2 179.19-9.3 179.19-12.4L179.19-12.4Q179.19-15.5 178.06-17.6 176.94-19.7 175.09-20.75 173.24-21.8 171.14-21.8L171.14-21.8Q168.99-21.8 167.14-20.75 165.29-19.7 164.14-17.6 162.99-15.5 162.99-12.4L162.99-12.4Q162.99-9.3 164.14-7.2 165.29-5.1 167.11-4.05 168.94-3 171.04-3ZM193.53 0L189.33 0 189.33-36 193.53-36 193.53 0Z" opacity="1" transform="matrix(1,0,0,1,0,0)" fill="#000000" class="wordmark-text-0" data-fill-palette-color="primary"></path></svg></g><g><svg xmlns="http://www.w3.org/2000/svg" xmlns:xlink="http://www.w3.org/1999/xlink" version="1.1" x="329.1763" y="0" viewBox="0.5238805970149207 0.520100365061816 71.01375527730701 70.99326808826696" enable-background="new 0 0 72 72" xml:space="preserve" height="76.04599999999999" width="76.06794530298004" class="icon-cg-0" data-fill-palette-color="accent" id="cg-0"><path fill="#000000" d="M69 57.9L45.6 36.6c-0.3-0.3-0.4-0.7-0.2-1.1 4.8-9 3.4-20.4-4.2-28-9.9-9.9-26.4-9.3-35.5 2-6.8 8.5-6.9 20.7-0.3 29.3 3.3 4.2 7.6 7 12.2 8.4 0.4 0.1 0.6 0.4 0.6 0.8l-0.5 17c-0.1 3.4 2.6 6.5 5.9 6.5 3.5 0.1 6.4-2.8 6.3-6.3l-0.5-16.9c0-0.4 0.2-0.7 0.6-0.8 1.9-0.5 3.7-1.1 5.5-2.1 0.4-0.2 0.8-0.1 1.1 0.2l21.1 23.2c2.9 3.2 8 3.7 11.2 0.8C72.4 66.4 72.4 61 69 57.9zM23.7 67.7c-1.7 0-3-1.4-3-3 0-1.7 1.4-3 3-3 1.7 0 3 1.4 3 3C26.8 66.3 25.4 67.7 23.7 67.7zM37 34.7c-1.9 2.3-4.3 3.9-6.8 4.9-0.5 0.2-1.1-0.2-1.1-0.7l-0.1-3.8c0-0.4 0.2-0.8 0.6-1 3.3-2 5.6-5.6 5.6-9.8 0-4.8-3-8.9-7.2-10.6-0.4-0.2-0.8 0.2-0.7 0.6l1.7 6.6c0.6 2.5-0.6 5.3-3.1 6.2-2.8 1-5.8-0.6-6.6-3.5l-2-7.7c-0.1-0.4-0.6-0.5-0.9-0.3-2.5 2.1-4 5.2-4 8.7 0 4.2 2.2 7.8 5.6 9.8 0.4 0.2 0.6 0.6 0.6 1l-0.1 3.3c0 0.6-0.6 1-1.2 0.7-2-0.9-3.8-2.3-5.4-4.1-5.3-6.2-5.2-15.5 0.2-21.6 6.8-7.6 18.8-7.3 25.2 0.9C41.9 20.3 41.8 28.9 37 34.7z" data-fill-palette-color="accent"></path></svg></g></svg></g></svg></g></svg></g></svg></g><g></g></svg></g><defs></defs></svg><rect width="395.5199999999999" height="74.22119935969097" fill="none" stroke="none" visibility="hidden"></rect></g></svg></g></svg>